<svg width="385" height="451" viewBox="0 0 385 451" fill="none" xmlns="http://www.w3.org/2000/svg">
<path d="M378.306 97.7944C373.247 84.3113 364.925 71.4892 353.01 60.0987C321.648 30.1232 266.647 11.2965 216.327 3.18529C83.4412 -18.2318 5.686 79.3979 0.542679 161.039C-1.90705 199.918 19.8518 237.848 21.556 276.843C23.3835 318.687 5.93265 359.971 14.3077 402.099C18.9773 425.578 38.3454 439.263 70.5339 444.737C166.822 461.108 295.719 441.511 344.055 373.705C357.593 354.715 363.538 333.033 365.632 311.945C368.101 287.055 362.321 262.294 361.531 237.443C360.78 213.784 368.835 191.18 377.406 168.511C386.07 145.587 386.914 120.739 378.306 97.7944Z" fill="#F38F16"/>
</svg>
